# xmcd
#
# Track frame offsets:
#	150
#	14401
#	28404
#	43354
#	54253
#	77451
#	96494
#
# Disc length: 1632 seconds
#
# Revision: 0
# Processed by: cddbd v1.5.2PL0 Copyright (c) Steve Scherf et al.
# Submitted via: dBpowerAMP V4.0
#
DISCID=57065e07
DTITLE=Goldenhorse - Out of the Moon
DYEAR=1900
DGENRE=Pop-Folk
TTITLE0=Engine Summer
TTITLE1=Autumn Jewels
TTITLE2=O' Africa
TTITLE3=Emptied Out (Original Album Version)
TTITLE4=Trinkity Trunk (with the NZSO)
TTITLE5=Waltz (with the NZSO)
TTITLE6=Cold Mountainside (with the NZSO)
EXTD=By Omeed Howey
EXTT0=
EXTT1=
EXTT2=
EXTT3=
EXTT4=
EXTT5=
EXTT6=
PLAYORDER=
